#!OML:ASF F:\VICON\USERDATA\INSTALL\rory3\rory3.ASF
:FULLY-SPECIFIED
:DEGREES
28
root 0.038474681292782587 17.919818894624147 16.49169306682874 -2.245340613150544 -2.616287111130788 2.373517937316941
lfemur 10.856966605568175 -4.423610116967345 -26.467608128855247
ltibia 32.31375945319335
lfoot -2.796762348623986 -7.601042137945538
ltoes 1.4565658761436473
rfemur -25.95771069481757 2.4462960285625748 20.61245138181448
rtibia 29.499044756291337
rfoot -6.023553873532011 -0.06555257479859478
rtoes -0.6017947795923901
lowerback 10.116499113185803 -1.110573253663965 -3.2721286201248874
upperback 0.3419020065833245 -1.800248207666412 1.459451302181841
thorax -5.142651346191138 -0.7649149345744857 3.2201003681835143
lowerneck -16.42618626289277 -2.4802916989069157 -2.021464419226601
upperneck 22.78325436453014 -2.9663745892348574 -0.21877580707041266
head 9.944113966666338 -1.5591876138163596 -0.012810113592339023
lclavicle 3.158291973095686e-16 -8.650597880198416e-16
lhumerus -23.953520457484824 2.5742122149976034 78.22561268541273
lradius 31.092278485334617
lwrist 6.543091641374293
lhand -29.548781399235164 18.798421917734746
lfingers nan
lthumb -2.9027847632770927 48.62803337309469
rclavicle 3.97685136493662e-16 -8.082910516697595e-16
rhumerus -36.27533416788691 -26.282036930826546 -74.61792335717209
rradius 26.543707139793305
rwrist 1.6133912658876608
rhand -17.874939621091453 21.54758448588962
rfingers nan
rthumb 8.720140519485751 -7.200268852264415
29
root 0.021925137633638958 17.905180543755197 16.92718538022001 -2.1363891135902593 -3.1313711041392764 0.8358667043065042
lfemur 10.035660685048736 -3.7544476118756256 -24.319542352513984
ltibia 38.44905219783004
lfoot -4.2098880829114425 -6.371532157993594
ltoes 1.2138929862687324
rfemur -24.729124497172492 3.070292298100157 22.178859038441804
rtibia 26.519329183545892
rfoot -7.702074148727369 -3.4862066944055714
rtoes -1.492004650517345
lowerback 9.964786084640258 -1.150910663174226 -2.256547374504268
upperback 0.30985112108276236 -1.6964649765066402 1.7057040025829955
thorax -5.302346724822347 -0.7530387775823355 3.0011412921362077
lowerneck -16.452090767344693 -2.4946679855395306 -1.933218575147881
upperneck 22.93491119797939 -2.9958581260241024 -0.3075768884675304
head 9.998856715232774 -1.572860085655901 -0.06601459049484752
lclavicle 2.8783298798941664e-16 -8.855966157359292e-16
lhumerus -24.782908848446 1.8423986208976593 78.56582792330337
lradius 30.299584480697348
lwrist 6.543227118516592
lhand -29.584736724599757 19.070959486644522
lfingers nan
lthumb -2.909448405864299 48.93611477383978
rclavicle 3.8737223700926794e-16 -8.158771906375948e-16
rhumerus -36.03136847232999 -27.304907018356424 -73.55585107873321
rradius 26.385020016642983
rwrist 3.5117464511613083
rhand -17.960155855006427 21.336198773306382
rfingers nan
rthumb 8.745231726733678 -7.240915335174275
30
root 0.014550395555320894 17.88806288434172 17.527061338207446 -2.412099380271194 -3.440525441233243 0.5930129382861347
lfemur 7.498708921045338 -2.789240581599458 -22.012883292969523
ltibia 44.64538764782651
lfoot -5.836504970008875 -3.4097952242911123
ltoes 0.13329668582739052
rfemur -22.644768212731854 3.1264311649604535 22.73375335238604
rtibia 24.968022862461858
rfoot -10.47010647225768 -6.143701137168908
rtoes -3.03668933320415
lowerback 9.96032649844022 -1.112508399604908 -1.817469994190379
upperback 0.31320167948273214 -1.5504787493017531 1.8599343704673945
thorax -5.367984884439323 -0.6587912760121504 2.9485955104640476
lowerneck -16.514795602923382 -2.5017884407080446 -1.8900826380659956
upperneck 22.934809288302876 -3.0183547723433115 -0.3155369321848569
head 10.045752332703438 -1.5811320588744844 -0.07523073338635895
lclavicle 3.0789929381005703e-16 -8.7148882900595e-16
lhumerus -25.42860601321832 0.32757578594580394 78.92006339157733
lradius 29.3622221323782
lwrist 6.472092673380532
lhand -29.573929578734965 19.16708420766236
lfingers nan
lthumb -2.938261064120831 49.19141925469903
rclavicle 3.9685993499973964e-16 -8.091547435892369e-16
rhumerus -35.65799913670115 -28.08155421469474 -72.9555146302551
rradius 26.186163882246877
rwrist 5.306186089986838
rhand -17.984715260236108 21.423612673665783
rfingers nan
rthumb 8.7285659030756 -7.429396019028239
31
root 0.024269196948697058 17.872071119797717 18.417557106523724 -2.754625178898332 -3.156666127714206 0.21673361471422958
lfemur 4.438247944401418 -1.915901908575234 -20.21268962247166
ltibia 50.25947448588501
lfoot -6.936011940340906 -1.319511975669696
ltoes -1.8264930028467528
rfemur -19.942424801741076 2.8199654068607902 23.42722356800029
rtibia 24.17909115932919
rfoot -14.283257422764255 -7.666893061982032
rtoes -5.669505367145165
lowerback 9.912194518656813 -1.0789571144275663 -1.199089304658926
upperback 0.29215186690499984 -1.3759532312700808 1.9455098527829704
thorax -5.386705577991527 -0.625519257344423 2.7371442247751125
lowerneck -16.54312133049691 -2.5070039071064216 -1.781331156822375
upperneck 22.869670924948746 -3.0437778143157908 -0.31559845745264237
head 10.006323917282133 -1.5957936979494973 -0.08188641221583169
lclavicle 3.183902347614536e-16 -8.648801995764333e-16
lhumerus -26.082573463046092 -1.1395054694821685 79.32785722479032
lradius 27.6755479553678
lwrist 6.567838239545157
lhand -29.41005907153755 18.80750496500092
lfingers nan
lthumb -2.804050630222039 48.761834351672555
rclavicle 4.0372458230459737e-16 -8.051317200119174e-16
rhumerus -34.78668126250012 -28.681826472978234 -72.82627685299803
rradius 26.173344741813153
rwrist 5.7887040940718
rhand -17.992330941260583 21.556328812796437
rfingers nan
rthumb 8.765405861769173 -7.445195763677708
32
root 0.05426888948937669 17.860631985131384 19.08941758025292 -2.871987965560433 -2.8019091270900285 -1.170935854184676
lfemur 0.5648309447411552 -1.0843833158943212 -17.71993469164432
ltibia 54.90514440609507
lfoot -8.022302285815094 0.2843466473598726
ltoes -2.171485360827377
rfemur -17.060443837182838 2.799423046212563 24.855345703616493
rtibia 24.324087358515758
rfoot -18.49535855652399 -9.220085169954025
rtoes -8.1369956215355
lowerback 9.810816719206274 -1.037561465180293 0.20076746875766305
upperback 0.28709429505651185 -1.1101456145304907 2.2216171091202854
thorax -5.412662936713225 -0.535895773468553 2.4233855981153587
lowerneck -16.603325248279354 -2.514055196625418 -1.7175295918498699
upperneck 22.752330909365618 -3.0713215568350725 -0.2724028256453813
head 9.90882347736333 -1.612857837513081 -0.06395267573863848
lclavicle 3.049053085343645e-16 -8.751620031079463e-16
lhumerus -26.576059735671336 -1.8460528040836781 79.65949061109448
lradius 25.31732662912928
lwrist 7.100953102536956
lhand -29.22787932910853 18.700105659332017
lfingers nan
lthumb -2.5356167040079374 48.850846437703275
rclavicle 3.9998771691287754e-16 -8.081861220310688e-16
rhumerus -33.55528630416185 -28.343470164221806 -73.25720734203722
rradius 26.242349118352973
rwrist 5.1152471780526545
rhand -18.03468926987545 21.597924318886633
rfingers nan
rthumb 8.823815869026303 -7.246834075459305
33
root 0.09143504943781372 17.84804308200993 20.640584675505337 -3.0580488445963554 -2.8948368688565895 -2.1404143127473865
lfemur -3.6651905376818217 -0.23250258466746243 -15.826719085660422
ltibia 58.32627174133286
lfoot -9.163426930089642 0.7898197294685936
ltoes -3.3010029472152187
rfemur -14.129569235570596 3.140422223847054 26.026435472574455
rtibia 25.297720661883517
rfoot -21.96907691649742 -10.768072836099781
rtoes -6.220134073654304
lowerback 9.73786885793669 -0.7983693623462222 1.185084299135992
upperback 0.2739649543973705 -0.6122101288948506 2.353864001219919
thorax -5.479247854008315 -0.3078479959587784 2.0516357872996824
lowerneck -16.593720375581302 -2.5445687151112235 -1.630954045556218
upperneck 22.568543174053115 -3.1230231894640945 -0.23707990305220805
head 9.81876097762349 -1.6362927460803995 -0.06850896187080396
lclavicle 3.1903096584648168e-16 -8.661408613766597e-16
lhumerus -26.935457143815633 -1.6174250032062014 79.88145747132401
lradius 22.565430617442924
lwrist 7.681549751498512
lhand -29.11172313833405 18.222027019987046
lfingers nan
lthumb -2.4779384641474653 48.27012575869978
rclavicle 4.1457985484899156e-16 -7.985151895234821e-16
rhumerus -32.03604632875296 -27.250599773577807 -73.98409171167143
rradius 26.39143930861225
rwrist 4.41686982109389
rhand -18.20411074156409 21.145432075127765
rfingers nan
rthumb 8.573084083022577 -7.791737686685638
34
root 0.18265514758216211 17.879727064538802 22.525997640618343 -2.0300958393092894 -2.014435412346792 -3.6311369720702107
lfemur -8.25848884606253 0.18240229982384815 -13.844072787990877
ltibia 60.58926169179998
lfoot -9.033673372230563 1.2111749031815338
ltoes -4.860697142021267
rfemur -11.099069119862 3.6139434128923416 27.77611677773639
rtibia 26.447733143127913
rfoot -24.02167077288219 -11.861500561857135
rtoes -2.3187001574663966
lowerback 9.429859188388079 -0.699514532879391 2.677906922443302
upperback 0.18776335115846945 -0.23455368382210895 2.5422302334963254
thorax -5.610975352788687 -0.1562675578598512 1.6189843051944277
lowerneck -16.619843158172564 -2.5778337655332324 -1.4952034420339948
upperneck 22.577754514186477 -3.1937011540952605 -0.20212302491408807
head 9.850360891803962 -1.6629244275517072 -0.09742939693279169
lclavicle 3.237333098950092e-16 -8.647477637223047e-16
lhumerus -27.302563109905105 -0.9223769919957236 80.08516043654583
lradius 20.269157424338058
lwrist 7.81800186989126
lhand -28.923151938684576 17.707688794548336
lfingers nan
lthumb -2.2674949843009062 47.739418730068365
rclavicle 4.1355399891695285e-16 -8.009544159770739e-16
rhumerus -30.304255234793562 -25.56618872988441 -74.86773558832812
rradius 26.724000766169535
rwrist 4.308316072504313
rhand -18.28384842585796 20.9919767140435
rfingers nan
rthumb 8.5246681266298 -7.85903414546498
